<?xml version="1.0" encoding="utf-8"?>
<!-- Generator: Adobe Illustrator 19.2.1, SVG Export Plug-In . SVG Version: 6.00 Build 0)  -->
<svg version="1.1" id="Layer_1" xmlns="http://www.w3.org/2000/svg" xmlns:xlink="http://www.w3.org/1999/xlink" x="0px" y="0px"
	 viewBox="0 0 146 112.9" style="enable-background:new 0 0 146 112.9;" xml:space="preserve">
<style type="text/css">
	.st0{clip-path:url(#SVGID_2_);fill:#16E7CF;}
	.st1{clip-path:url(#SVGID_4_);fill:#16E7CF;}
	.st2{clip-path:url(#SVGID_6_);fill:#FF968D;}
	.st3{clip-path:url(#SVGID_8_);fill:#FF968D;}
	.st4{clip-path:url(#SVGID_10_);fill:#FF968D;}
	.st5{clip-path:url(#SVGID_12_);fill:#16E7CF;}
	.st6{clip-path:url(#SVGID_14_);fill:#16E7CF;}
	.st7{clip-path:url(#SVGID_16_);fill:#16E7CF;}
</style>
<g>
	<defs>
		<rect id="SVGID_1_" x="94.2" y="9.4" width="4.1" height="87.1"/>
	</defs>
	<use xlink:href="#SVGID_1_"  style="overflow:visible;fill:#16E7CF;"/>
	<clipPath id="SVGID_2_">
		<use xlink:href="#SVGID_1_"  style="overflow:visible;"/>
	</clipPath>
	<line class="st0" x1="96.3" y1="96.1" x2="96.3" y2="9.8"/>
</g>
<g>
	<defs>
		<rect id="SVGID_3_" x="47.7" y="10.7" width="4.1" height="61.2"/>
	</defs>
	<use xlink:href="#SVGID_3_"  style="overflow:visible;fill:#16E7CF;"/>
	<clipPath id="SVGID_4_">
		<use xlink:href="#SVGID_3_"  style="overflow:visible;"/>
	</clipPath>
	<line class="st1" x1="49.8" y1="71.5" x2="49.8" y2="11.1"/>
</g>
<g>
	<defs>
		<rect id="SVGID_5_" x="1.5" y="52.5" width="51.7" height="27.7"/>
	</defs>
	<clipPath id="SVGID_6_">
		<use xlink:href="#SVGID_5_"  style="overflow:visible;"/>
	</clipPath>
	<path class="st2" d="M11.6,52.9h31.4c2.8,0,4.2,0,5.7,0.5c1.6,0.6,2.9,1.8,3.5,3.4c0.5,1.5,0.5,2.8,0.5,5.6v7.9
		c0,2.7,0,4.1-0.5,5.6c-0.6,1.6-1.9,2.9-3.5,3.4c-1.5,0.5-2.9,0.5-5.8,0.5H11.6c-2.8,0-4.2,0-5.7-0.5c-1.6-0.6-2.9-1.8-3.5-3.4
		c-0.5-1.5-0.5-2.8-0.5-5.6v-7.9c0-2.7,0-4.1,0.5-5.6C3,55.3,4.3,54,5.9,53.4C7.4,52.9,8.9,52.9,11.6,52.9L11.6,52.9z"/>
</g>
<g>
	<defs>
		<rect id="SVGID_7_" x="47.1" y="1" width="51.7" height="27.7"/>
	</defs>
	<clipPath id="SVGID_8_">
		<use xlink:href="#SVGID_7_"  style="overflow:visible;"/>
	</clipPath>
	<path class="st3" d="M57.3,1.4h31.4c2.8,0,4.2,0,5.7,0.5c1.6,0.6,2.9,1.8,3.5,3.4c0.5,1.5,0.5,2.8,0.5,5.6v7.9c0,2.7,0,4.1-0.5,5.6
		c-0.6,1.6-1.9,2.9-3.5,3.4c-1.5,0.5-2.9,0.5-5.8,0.5H57.3c-2.8,0-4.2,0-5.7-0.5c-1.6-0.6-2.9-1.8-3.5-3.4c-0.5-1.5-0.5-2.8-0.5-5.6
		v-7.9c0-2.7,0-4.1,0.5-5.6c0.6-1.6,1.9-2.9,3.5-3.4C53.1,1.4,54.5,1.4,57.3,1.4L57.3,1.4z"/>
</g>
<g>
	<defs>
		<rect id="SVGID_9_" x="92.8" y="76.7" width="51.7" height="27.7"/>
	</defs>
	<clipPath id="SVGID_10_">
		<use xlink:href="#SVGID_9_"  style="overflow:visible;"/>
	</clipPath>
	<path class="st4" d="M102.9,77.1h31.4c2.8,0,4.2,0,5.7,0.5c1.6,0.6,2.9,1.8,3.5,3.4c0.5,1.5,0.5,2.8,0.5,5.6v7.9
		c0,2.7,0,4.1-0.5,5.6c-0.6,1.6-1.9,2.9-3.5,3.4c-1.5,0.5-2.9,0.5-5.8,0.5h-31.4c-2.8,0-4.2,0-5.7-0.5c-1.6-0.6-2.9-1.8-3.5-3.4
		c-0.5-1.5-0.5-2.8-0.5-5.6v-7.9c0-2.7,0-4.1,0.5-5.6c0.6-1.6,1.9-2.9,3.5-3.4C98.7,77.1,100.1,77.1,102.9,77.1L102.9,77.1z"/>
</g>
<g>
	<defs>
		<rect id="SVGID_11_" x="1.6" y="60" width="51.7" height="27.7"/>
	</defs>
	<clipPath id="SVGID_12_">
		<use xlink:href="#SVGID_11_"  style="overflow:visible;"/>
	</clipPath>
	<path class="st5" d="M11.8,60.4h31.4c2.8,0,4.2,0,5.7,0.5c1.6,0.6,2.9,1.8,3.5,3.4c0.5,1.5,0.5,2.8,0.5,5.6v7.9
		c0,2.7,0,4.1-0.5,5.6c-0.6,1.6-1.9,2.9-3.5,3.4c-1.5,0.5-2.9,0.5-5.8,0.5H11.8c-2.8,0-4.2,0-5.7-0.5c-1.6-0.6-2.9-1.8-3.5-3.4
		C2,81.9,2,80.5,2,77.7v-7.9c0-2.7,0-4.1,0.5-5.6c0.6-1.6,1.9-2.9,3.5-3.4C7.6,60.4,9,60.4,11.8,60.4L11.8,60.4z"/>
</g>
<g>
	<defs>
		<rect id="SVGID_13_" x="92.8" y="84.3" width="51.7" height="27.7"/>
	</defs>
	<clipPath id="SVGID_14_">
		<use xlink:href="#SVGID_13_"  style="overflow:visible;"/>
	</clipPath>
	<path class="st6" d="M102.9,84.7h31.4c2.8,0,4.2,0,5.7,0.5c1.6,0.6,2.9,1.8,3.5,3.4c0.5,1.5,0.5,2.8,0.5,5.6v7.9
		c0,2.7,0,4.1-0.5,5.6c-0.6,1.6-1.9,2.9-3.5,3.4c-1.5,0.5-2.9,0.5-5.8,0.5h-31.4c-2.8,0-4.2,0-5.7-0.5c-1.6-0.6-2.9-1.8-3.5-3.4
		c-0.5-1.5-0.5-2.8-0.5-5.6v-7.9c0-2.7,0-4.1,0.5-5.6c0.6-1.6,1.9-2.9,3.5-3.4C98.7,84.7,100.1,84.7,102.9,84.7L102.9,84.7z"/>
</g>
<g>
	<defs>
		<rect id="SVGID_15_" x="47.1" y="8.7" width="51.7" height="27.7"/>
	</defs>
	<clipPath id="SVGID_16_">
		<use xlink:href="#SVGID_15_"  style="overflow:visible;"/>
	</clipPath>
	<path class="st7" d="M57.3,9.1h31.4c2.8,0,4.2,0,5.7,0.5c1.6,0.6,2.9,1.8,3.5,3.4c0.5,1.5,0.5,2.8,0.5,5.6v7.9c0,2.7,0,4.1-0.5,5.6
		c-0.6,1.6-1.9,2.9-3.5,3.4c-1.5,0.5-2.9,0.5-5.8,0.5H57.3c-2.8,0-4.2,0-5.7-0.5c-1.6-0.6-2.9-1.8-3.5-3.4c-0.5-1.5-0.5-2.8-0.5-5.6
		v-7.9c0-2.7,0-4.1,0.5-5.6c0.6-1.6,1.9-2.9,3.5-3.4C53.1,9.1,54.5,9.1,57.3,9.1L57.3,9.1z"/>
</g>
</svg>
